# This file uses centimeters as units for non-parametric coordinates.

mtllib Wall_LP.mtl
g default
v -1.000000 0.000000 0.000000
v -0.500000 0.000000 0.000000
v 0.000000 0.000000 0.000000
v -1.000000 1.000000 0.000000
v -0.500000 1.000000 0.000000
v 0.000000 0.591638 0.000000
v -1.000000 1.000000 -3.000000
v -0.500000 1.000000 -3.000000
v 0.000000 0.591638 -3.000000
v -1.000000 0.000000 -3.000000
v -0.500000 0.000000 -3.000000
v 0.000000 0.000000 -3.000000
vt 0.227507 0.013213
vt 0.762401 0.010606
vt 0.475357 0.012005
vt 0.392740 0.012408
vt 0.679784 0.011009
vt 0.582026 0.011486
vt 0.115324 0.469127
vt 0.221015 0.469227
vt 0.584442 0.507185
vt 0.764817 0.506306
vt 0.847433 0.505903
vt 0.682200 0.506709
vt 0.009715 0.382706
vt 0.009834 0.257644
vt 0.395156 0.508108
vt 0.221216 0.257845
vt 0.115525 0.257745
vt 0.477773 0.507705
vt 0.210688 0.020170
vt 0.212755 0.136835
vt 0.013499 0.023664
vt 0.016992 0.220853
vt 0.115587 0.219107
vt 0.112093 0.021917
vt 0.229923 0.508913
vt 0.845017 0.010204
vn 0.000000 0.000000 1.000000
vn 0.000000 0.000000 1.000000
vn 0.000000 0.000000 1.000000
vn 0.000000 0.000000 1.000000
vn 0.000000 0.000000 1.000000
vn 0.000000 0.000000 1.000000
vn 0.000000 1.000000 0.000000
vn 0.378055 0.925783 0.000000
vn 0.378055 0.925783 0.000000
vn 0.000000 1.000000 0.000000
vn 0.632562 0.774510 0.000000
vn 0.632562 0.774510 0.000000
vn 0.000000 0.000000 -1.000000
vn 0.000000 0.000000 -1.000000
vn 0.000000 0.000000 -1.000000
vn 0.000000 0.000000 -1.000000
vn 0.000000 0.000000 -1.000000
vn 0.000000 0.000000 -1.000000
vn 0.000000 -1.000000 0.000000
vn 0.000000 -1.000000 0.000000
vn 0.000000 -1.000000 0.000000
vn 0.000000 -1.000000 0.000000
vn 0.000000 -1.000000 0.000000
vn 0.000000 -1.000000 0.000000
vn 1.000000 0.000000 0.000000
vn 1.000000 0.000000 0.000000
vn 1.000000 0.000000 0.000000
vn 1.000000 0.000000 0.000000
vn -1.000000 0.000000 0.000000
vn -1.000000 0.000000 0.000000
vn -1.000000 0.000000 0.000000
vn -1.000000 0.000000 0.000000
s 1
g Wall_LP
usemtl initialShadingGroup
f 1/21/1 2/24/2 5/23/3 4/22/4
f 2/24/2 3/19/5 6/20/6 5/23/3
s 2
f 4/4/7 5/3/8 8/18/9 7/15/10
f 5/3/8 6/6/11 9/9/12 8/18/9
s 3
f 7/8/13 8/7/14 11/17/15 10/16/16
f 8/7/14 9/13/17 12/14/18 11/17/15
s 4
f 10/11/19 11/10/20 2/2/21 1/26/22
f 11/10/20 12/12/23 3/5/24 2/2/21
s off
f 3/5/25 12/12/26 9/9/27 6/6/28
f 10/25/29 1/1/30 4/4/31 7/15/32
