# This file uses centimeters as units for non-parametric coordinates.

mtllib Corner_Floor_LP.mtl
g default
v 3.000000 0.000000 -2.946936
v 3.000000 0.000000 -3.000000
v 2.999950 0.000000 -3.000000
v 3.358797 0.000000 -3.000000
v 0.358885 0.000000 -3.000000
v 0.358885 0.000000 -0.321032
v 0.383256 0.000000 -0.566982
v 0.387579 0.000000 -0.610341
v 0.438337 0.000000 -0.862944
v 0.446840 0.000000 -0.905139
v 0.522213 0.000000 -1.148489
v 0.534829 0.000000 -1.189150
v 0.634288 0.000000 -1.421130
v 0.650922 0.000000 -1.459887
v 0.774124 0.000000 -1.678889
v 0.794651 0.000000 -1.715397
v 0.940531 0.000000 -1.919097
v 0.964844 0.000000 -1.953091
v 1.131623 0.000000 -2.139645
v 1.159527 0.000000 -2.170821
v 1.346761 0.000000 -2.338717
v 1.378051 0.000000 -2.366785
v 1.580573 0.000000 -2.511488
v 1.614413 0.000000 -2.535683
v 1.833641 0.000000 -2.658909
v 1.870165 0.000000 -2.679383
v 2.104487 0.000000 -2.780199
v 2.143193 0.000000 -2.796635
v 2.184154 0.000000 -2.809306
v 2.429550 0.000000 -2.885174
v 2.472436 0.000000 -2.894014
v 2.729307 0.000000 -2.946893
v 2.773760 0.000000 -2.951892
v 3.040018 0.000000 -2.981742
v 3.085630 0.000000 -2.984360
vt 1.000000 0.982312
vt 1.000000 1.000000
vt 0.999983 1.000000
vt 0.999971 1.000000
vt 0.000000 1.000000
vt 0.000000 0.107011
vt 0.008124 0.188994
vt 0.009565 0.203447
vt 0.026484 0.287648
vt 0.029318 0.301713
vt 0.054443 0.382830
vt 0.058648 0.396383
vt 0.091801 0.473710
vt 0.097346 0.486629
vt 0.138413 0.559630
vt 0.145255 0.571799
vt 0.193882 0.639699
vt 0.201986 0.651030
vt 0.257579 0.713215
vt 0.266881 0.723607
vt 0.329292 0.779572
vt 0.339722 0.788928
vt 0.407229 0.837163
vt 0.418509 0.845228
vt 0.491585 0.886303
vt 0.503760 0.893128
vt 0.581867 0.926733
vt 0.594769 0.932212
vt 0.608423 0.936435
vt 0.690222 0.961725
vt 0.704517 0.964671
vt 0.790141 0.982298
vt 0.804958 0.983964
vt 0.893711 0.993914
vt 0.908915 0.994787
vn 0.000000 1.000000 0.000000
vn 0.000000 1.000000 0.000000
vn 0.000000 1.000000 0.000000
vn -0.000000 1.000000 -0.000000
vn -0.000000 1.000000 -0.000000
vn -0.000000 1.000000 -0.000000
vn -0.000000 1.000000 -0.000000
vn -0.000000 1.000000 -0.000000
vn -0.000000 1.000000 -0.000000
vn -0.000000 1.000000 -0.000000
vn -0.000000 1.000000 -0.000000
vn -0.000000 1.000000 -0.000000
vn -0.000000 1.000000 -0.000000
vn -0.000000 1.000000 -0.000000
vn -0.000000 1.000000 -0.000000
vn -0.000000 1.000000 -0.000000
vn -0.000000 1.000000 -0.000000
vn -0.000000 1.000000 -0.000000
vn -0.000000 1.000000 -0.000000
vn -0.000000 1.000000 -0.000000
vn -0.000000 1.000000 -0.000000
vn -0.000000 1.000000 -0.000000
vn -0.000000 1.000000 -0.000000
vn -0.000000 1.000000 -0.000000
vn -0.000000 1.000000 -0.000000
vn -0.000000 1.000000 -0.000000
vn -0.000000 1.000000 -0.000000
vn -0.000000 1.000000 -0.000000
vn -0.000000 1.000000 -0.000000
vn -0.000000 1.000000 -0.000000
vn -0.000000 1.000000 -0.000000
vn -0.000000 1.000000 -0.000000
vn -0.000000 1.000000 -0.000000
vn -0.000000 1.000000 -0.000000
vn -0.000000 1.000000 -0.000000
s off
g Corner_Floor
usemtl initialShadingGroup
f 1/1/1 2/2/2 3/3/3
f 4/4/4 5/5/5 6/6/6 7/7/7 8/8/8 9/9/9 10/10/10 11/11/11 12/12/12 13/13/13 14/14/14 15/15/15 16/16/16 17/17/17 18/18/18 19/19/19 20/20/20 21/21/21 22/22/22 23/23/23 24/24/24 25/25/25 26/26/26 27/27/27 28/28/28 29/29/29 30/30/30 31/31/31 32/32/32 33/33/33 34/34/34 35/35/35
