# This file uses centimeters as units for non-parametric coordinates.

mtllib Inside_Corner_LP.mtl
g default
v -0.002038 0.000000 0.000000
v -0.002038 0.592192 0.000000
v -1.000000 1.000000 -3.000000
v -0.500000 1.000000 -3.000000
v 0.000000 0.591638 -3.000000
v -1.000000 0.000000 -3.000000
v -0.500000 0.000000 -3.000000
v 0.000000 0.000000 -3.000000
v -1.000295 1.000000 -0.999703
v -0.501167 1.000000 -0.498829
v -1.000296 0.000000 -0.999703
v -0.501167 0.000000 -0.498829
v -3.000000 0.000000 -1.000000
v -3.000000 0.000000 -0.500000
v -3.000000 0.000000 0.000000
v -3.000000 1.000000 -1.000000
v -3.000000 1.000000 -0.500000
v -3.000000 0.591638 0.000000
vt 0.680121 0.011007
vt 0.581591 0.011488
vt 0.115324 0.469127
vt 0.221015 0.469227
vt 0.584442 0.507185
vt 0.764817 0.506306
vt 0.847433 0.505903
vt 0.682200 0.506709
vt 0.009715 0.382706
vt 0.009834 0.257644
vt 0.395156 0.508108
vt 0.221216 0.257845
vt 0.115525 0.257745
vt 0.477773 0.507705
vt 0.229923 0.508913
vt 0.393545 0.177543
vt 0.475757 0.094235
vt 0.228312 0.178349
vt 0.845822 0.175339
vt 0.762802 0.092836
vt 0.013499 0.510550
vt 0.112093 0.508803
vt 0.115587 0.705993
vt 0.016992 0.707739
vt 0.210688 0.507056
vt 0.212755 0.623721
vt 0.392740 0.499294
vt 0.475357 0.498891
vt 0.477368 0.911589
vt 0.394350 0.829663
vt 0.582026 0.498372
vt 0.584440 0.993734
vt 0.679784 0.497895
vt 0.682199 0.993258
vt 0.846628 0.827458
vt 0.764412 0.910190
vt 0.762401 0.497492
vt 0.845017 0.497090
vt 0.229117 0.830468
vt 0.227507 0.500099
vn 0.000000 0.000000 -1.000000
vn 0.000000 0.000000 -1.000000
vn 0.000000 0.000000 -1.000000
vn 0.000000 0.000000 -1.000000
vn 0.000000 0.000000 -1.000000
vn 0.000000 0.000000 -1.000000
vn 0.000000 -1.000000 0.000000
vn 0.000000 -1.000000 0.000000
vn 0.000000 -1.000000 0.000000
vn 0.000000 -1.000000 0.000000
vn 0.000000 -1.000000 0.000000
vn 0.000000 -1.000000 0.000000
vn 1.000000 -0.000000 0.000679
vn 1.000000 -0.000000 0.000679
vn 1.000000 -0.000000 0.000679
vn 1.000000 -0.000000 0.000679
vn -1.000000 0.000000 -0.000148
vn -1.000000 0.000000 -0.000148
vn -1.000000 0.000000 -0.000148
vn -1.000000 0.000000 -0.000148
vn 0.000000 1.000000 0.000000
vn 0.535559 0.844498 0.000246
vn 0.409827 0.912163 0.000188
vn 0.000000 1.000000 0.000000
vn 0.632547 0.774522 0.000290
vn 0.632547 0.774522 0.000290
vn -1.000000 0.000000 0.000000
vn -1.000000 0.000000 0.000000
vn -1.000000 0.000000 0.000000
vn -1.000000 0.000000 0.000000
vn -1.000000 0.000000 0.000000
vn -1.000000 0.000000 0.000000
vn 0.000000 1.000000 0.000000
vn -0.000138 0.912285 0.409555
vn -0.000180 0.844599 0.535399
vn 0.000000 1.000000 0.000000
vn -0.000213 0.774305 0.632812
vn -0.000213 0.774305 0.632812
vn 0.000000 0.000000 1.000000
vn 0.000000 0.000000 1.000000
vn 0.000000 0.000000 1.000000
vn 0.000000 0.000000 1.000000
vn 0.000000 -1.000000 0.000000
vn 0.000000 -1.000000 0.000000
vn 0.000000 -1.000000 0.000000
vn 0.000000 -1.000000 0.000000
vn 0.000000 -1.000000 0.000000
vn 0.000000 -1.000000 0.000000
vn 0.000148 0.000000 -1.000000
vn 0.000148 0.000000 -1.000000
vn 0.000148 0.000000 -1.000000
vn 0.000148 0.000000 -1.000000
s 1
g Inside_Corner_LP
usemtl initialShadingGroup
f 3/4/1 4/3/2 7/13/3 6/12/4
f 4/3/2 5/9/5 8/10/6 7/13/3
s 2
f 6/7/7 7/6/8 12/20/9 11/19/10
f 7/6/8 8/8/11 1/1/12 12/20/9
s off
f 1/1/13 8/8/14 5/5/15 2/2/16
f 6/15/17 11/18/18 9/16/19 3/11/20
s 3
f 9/16/21 10/17/22 4/14/23 3/11/24
f 10/17/22 2/2/25 5/5/26 4/14/23
s 4
f 13/21/27 14/22/28 17/23/29 16/24/30
f 14/22/28 15/25/31 18/26/32 17/23/29
s 5
f 16/27/33 17/28/34 10/29/35 9/30/36
f 17/28/34 18/31/37 2/32/38 10/29/35
s off
f 15/33/39 1/34/40 2/32/41 18/31/42
s 6
f 11/35/43 12/36/44 14/37/45 13/38/46
f 12/36/44 1/34/47 15/33/48 14/37/45
s off
f 9/30/49 11/39/50 13/40/51 16/27/52
