# This file uses centimeters as units for non-parametric coordinates.

mtllib Outside_Bend_LP.mtl
g default
v -0.970647 0.000000 0.000040
v -0.482833 0.000000 0.000183
v 0.000162 0.000000 0.000029
v -0.970284 1.000000 -0.000040
v -0.482174 1.000000 -0.000183
v 0.000162 0.591638 -0.000307
v 0.129642 1.000000 -2.917073
v 0.461184 1.000000 -2.542448
v 0.795439 0.591638 -2.171182
v 0.127600 0.000000 -2.915258
v 0.458941 0.000000 -2.540440
v 0.795439 0.000000 -2.170947
v 2.999965 1.000000 -3.999946
v 2.997430 1.000000 -3.496562
v 2.999938 0.591638 -3.000221
v 3.000035 0.000000 -4.000053
v 2.997534 0.000000 -3.496733
v 2.999938 0.000000 -3.000157
v -0.697752 1.000000 -1.622864
v -0.699018 0.000000 -1.621856
v -0.259242 0.000000 -1.409594
v 0.180779 0.000000 -1.197797
v 0.180779 0.591638 -1.198104
v -0.257684 1.000000 -1.410873
v 1.407472 1.000000 -3.731094
v 1.407635 0.000000 -3.731380
v 1.590272 0.000000 -3.261559
v 1.774078 0.000000 -2.792943
v 1.774078 0.591638 -2.793091
v 1.590869 1.000000 -3.261927
v -0.907116 1.000000 -0.848879
v -0.907896 0.000000 -0.848373
v -0.436000 0.000000 -0.733600
v 0.033499 0.000000 -0.616642
v 0.033499 0.591638 -0.616971
v -0.434919 1.000000 -0.734391
v -0.350460 0.000000 -2.318767
v -0.348674 1.000000 -2.320316
v 0.043731 1.000000 -2.020308
v 0.437231 0.591638 -1.722121
v 0.437231 0.000000 -1.721875
v 0.042029 0.000000 -2.018875
v 0.721267 1.000000 -3.392078
v 0.721480 0.000000 -3.392454
v 0.979861 0.000000 -2.958286
v 1.245356 0.000000 -2.531197
v 1.245356 0.591638 -2.531389
v 0.982608 1.000000 -2.960834
v 2.171546 0.000000 -3.930419
v 2.171430 1.000000 -3.930225
v 2.268091 1.000000 -3.439747
v 2.365488 0.591638 -2.950338
v 2.365488 0.000000 -2.950233
v 2.268241 0.000000 -3.440002
v 2.577437 0.000000 -3.978805
v 2.577344 1.000000 -3.978655
v 2.627746 1.000000 -3.483297
v 2.678702 0.591638 -2.988788
v 2.678702 0.000000 -2.988725
v 2.627873 0.000000 -3.483510
v 1.781034 1.000000 -3.848234
v 1.781173 0.000000 -3.848469
v 1.921721 0.000000 -3.366226
v 2.063090 0.000000 -2.884889
v 2.063090 0.591638 -2.885016
v 1.921548 1.000000 -3.365921
v 1.053165 0.000000 -3.578761
v 1.052977 1.000000 -3.578428
v 1.277864 1.000000 -3.127454
v 1.500794 0.591638 -2.675006
v 1.500794 0.000000 -2.674836
v 1.274921 0.000000 -3.124768
v 0.413499 1.000000 -3.171926
v 0.411208 0.000000 -3.169923
v 0.707231 0.000000 -2.763120
v 1.009669 0.000000 -2.362873
v 1.009669 0.591638 -2.363086
v 0.709733 1.000000 -2.765404
v -0.126977 0.000000 -2.630714
v -0.124989 1.000000 -2.632473
v 0.238669 1.000000 -2.293447
v 0.604178 0.591638 -1.957002
v 0.604178 0.000000 -1.956746
v 0.236685 0.000000 -2.291736
v -0.540052 1.000000 -1.982847
v -0.541580 0.000000 -1.981567
v -0.123724 0.000000 -1.723952
v 0.295779 0.000000 -1.468201
v 0.295779 0.591638 -1.468493
v -0.122064 1.000000 -1.725346
v -0.821345 0.000000 -1.243066
v -0.820330 1.000000 -1.243824
v -0.362252 1.000000 -1.079536
v 0.093131 0.591638 -0.913402
v 0.093131 0.000000 -0.913083
v -0.363566 0.000000 -1.078518
v -0.957298 1.000000 -0.441812
v -0.957860 0.000000 -0.441530
v -0.475908 0.000000 -0.378105
v 0.002397 0.000000 -0.311278
v 0.002397 0.591638 -0.311613
v -0.475047 1.000000 -0.378698
vt 0.227507 0.013213
vt 0.762401 0.010606
vt 0.475357 0.012005
vt 0.392740 0.012408
vt 0.679784 0.011009
vt 0.582026 0.011486
vt 0.584442 0.507185
vt 0.764817 0.506306
vt 0.847433 0.505903
vt 0.682200 0.506709
vt 0.395156 0.508108
vt 0.477773 0.507705
vt 0.210688 0.020170
vt 0.212755 0.136835
vt 0.013499 0.023664
vt 0.016992 0.220853
vt 0.115587 0.219107
vt 0.112093 0.021917
vt 0.229923 0.508913
vt 0.845017 0.010204
vt 0.424270 0.526587
vt 0.497066 0.526233
vt 0.499194 0.963008
vt 0.426398 0.963363
vt 0.591055 0.525775
vt 0.593184 0.962550
vt 0.272958 0.929104
vt 0.179830 0.929016
vt 0.180007 0.742761
vt 0.273135 0.742849
vt 0.086775 0.852868
vt 0.086880 0.742672
vt 0.824913 0.961421
vt 0.752117 0.961775
vt 0.749989 0.525000
vt 0.822785 0.524645
vt 0.679322 0.962130
vt 0.677193 0.525355
vt 0.280807 0.964073
vt 0.278678 0.527297
vt 0.393948 0.260258
vt 0.228715 0.261063
vt 0.846226 0.258054
vt 0.763609 0.258456
vt 0.680992 0.258859
vt 0.583234 0.259335
vt 0.476565 0.259855
vt 0.425334 0.744975
vt 0.279742 0.745685
vt 0.823849 0.743033
vt 0.751053 0.743388
vt 0.678257 0.743743
vt 0.592120 0.744162
vt 0.498130 0.744620
vt 0.393344 0.136333
vt 0.228111 0.137138
vt 0.845621 0.134129
vt 0.763005 0.134531
vt 0.680388 0.134934
vt 0.582630 0.135410
vt 0.475961 0.135930
vt 0.229319 0.384988
vt 0.846829 0.381978
vt 0.394552 0.384183
vt 0.477169 0.383780
vt 0.583838 0.383260
vt 0.681596 0.382784
vt 0.764213 0.382381
vt 0.424802 0.635781
vt 0.279210 0.636491
vt 0.823317 0.633839
vt 0.750521 0.634194
vt 0.677725 0.634549
vt 0.591587 0.634969
vt 0.497598 0.635427
vt 0.280274 0.854879
vt 0.824381 0.852227
vt 0.425866 0.854169
vt 0.498662 0.853814
vt 0.592652 0.853356
vt 0.678789 0.852936
vt 0.751585 0.852582
vt 0.280540 0.909476
vt 0.824647 0.906824
vt 0.426132 0.908766
vt 0.498928 0.908411
vt 0.592918 0.907953
vt 0.679055 0.907533
vt 0.751851 0.907179
vt 0.425600 0.799572
vt 0.280008 0.800282
vt 0.824115 0.797630
vt 0.751319 0.797985
vt 0.678523 0.798339
vt 0.592386 0.798759
vt 0.498396 0.799217
vt 0.279476 0.691088
vt 0.823583 0.688436
vt 0.425068 0.690378
vt 0.497864 0.690024
vt 0.591853 0.689565
vt 0.677991 0.689146
vt 0.750787 0.688791
vt 0.424536 0.581184
vt 0.278944 0.581894
vt 0.823051 0.579242
vt 0.750255 0.579597
vt 0.677459 0.579952
vt 0.591321 0.580372
vt 0.497332 0.580830
vt 0.229621 0.446951
vt 0.847131 0.443941
vt 0.394854 0.446145
vt 0.477471 0.445743
vt 0.584140 0.445223
vt 0.681898 0.444746
vt 0.764515 0.444344
vt 0.394250 0.322220
vt 0.229017 0.323026
vt 0.846527 0.320016
vt 0.763911 0.320419
vt 0.681294 0.320821
vt 0.583536 0.321298
vt 0.476867 0.321818
vt 0.228413 0.199101
vt 0.845923 0.196091
vt 0.393646 0.198295
vt 0.476263 0.197893
vt 0.582932 0.197373
vt 0.680690 0.196896
vt 0.763307 0.196494
vt 0.393042 0.074370
vt 0.227809 0.075176
vt 0.845320 0.072166
vt 0.762703 0.072569
vt 0.680086 0.072971
vt 0.582328 0.073448
vt 0.475659 0.073968
vn -0.000000 0.000222 1.000000
vn 0.000209 0.000319 1.000000
vn 0.000144 0.000289 1.000000
vn -0.000000 0.000222 1.000000
vn 0.000475 0.000441 1.000000
vn 0.000475 0.000441 1.000000
vn 0.000000 1.000000 0.000000
vn 0.356351 0.934340 0.004836
vn 0.352443 0.935583 0.021637
vn 0.000000 1.000000 0.000000
vn 0.647687 0.761855 0.008790
vn 0.646334 0.762141 0.037330
vn 0.000000 -1.000000 0.000000
vn 0.000000 -1.000000 0.000000
vn 0.000000 -1.000000 0.000000
vn 0.000000 -1.000000 0.000000
vn 0.000000 -1.000000 0.000000
vn 0.000000 -1.000000 0.000000
vn 0.999974 0.000004 0.007181
vn 0.998543 0.000030 0.053964
vn 0.998541 0.000030 0.053998
vn 0.999974 0.000004 0.007181
vn -0.997258 0.000535 -0.073996
vn -0.997260 0.000535 -0.073977
vn -0.999575 0.000457 -0.029164
vn -0.999575 0.000457 -0.029164
vn 0.000000 1.000000 -0.000000
vn 0.237305 0.934672 0.264717
vn 0.214965 0.938922 0.268730
vn 0.000000 1.000000 -0.000000
vn 0.422403 0.774306 0.471196
vn 0.395347 0.775466 0.492294
vn 0.999988 0.000086 0.005003
vn 0.999998 0.000080 0.001966
vn 1.000000 0.000077 0.000640
vn 0.999988 0.000086 0.005003
vn 0.999988 0.000066 -0.004919
vn 0.999988 0.000066 -0.004919
vn 0.000000 -1.000000 0.000000
vn 0.000000 -1.000000 0.000000
vn 0.000000 -1.000000 0.000000
vn 0.000000 -1.000000 0.000000
vn 0.000000 -1.000000 0.000000
vn 0.000000 -1.000000 0.000000
vn 0.667248 0.000282 0.744836
vn 0.625013 0.000281 0.780615
vn 0.625000 0.000281 0.780625
vn 0.667248 0.000282 0.744836
vn -0.626133 -0.000015 -0.779716
vn -0.626299 -0.000015 -0.779583
vn -0.668095 0.000026 -0.744076
vn -0.668095 0.000026 -0.744076
vn -0.745259 0.000310 -0.666775
vn -0.780358 0.000442 -0.625333
vn -0.780245 0.000441 -0.625474
vn -0.745259 0.000310 -0.666775
vn 0.000000 -1.000000 0.000000
vn 0.000000 -1.000000 0.000000
vn 0.000000 -1.000000 0.000000
vn 0.000000 -1.000000 0.000000
vn 0.000000 -1.000000 0.000000
vn 0.000000 -1.000000 0.000000
vn 0.781748 0.000261 0.623594
vn 0.781763 0.000261 0.623576
vn 0.745904 0.000276 0.666053
vn 0.745904 0.000276 0.666053
vn 0.270688 0.937880 0.217047
vn 0.497611 0.771777 0.395908
vn 0.473628 0.772435 0.423109
vn 0.250156 0.942063 0.223473
vn 0.000000 1.000000 0.000000
vn 0.000000 1.000000 0.000000
vn -0.050266 0.000124 -0.998736
vn -0.083802 0.000141 -0.996482
vn -0.083806 0.000141 -0.996482
vn -0.050266 0.000124 -0.998736
vn 0.000000 -1.000000 0.000000
vn 0.000000 -1.000000 0.000000
vn 0.000000 -1.000000 0.000000
vn 0.000000 -1.000000 0.000000
vn 0.000000 -1.000000 0.000000
vn 0.000000 -1.000000 0.000000
vn 0.078414 0.000124 0.996921
vn 0.078415 0.000124 0.996921
vn 0.035567 0.000108 0.999367
vn 0.035567 0.000108 0.999367
vn 0.027420 0.937050 0.348117
vn 0.049198 0.772724 0.632833
vn 0.022705 0.772053 0.635152
vn 0.012498 0.936810 0.349615
vn 0.000000 1.000000 0.000000
vn 0.000000 1.000000 0.000000
vn -0.935065 0.000819 -0.354476
vn -0.935096 0.000819 -0.354393
vn -0.965370 0.000779 -0.260883
vn -0.965354 0.000779 -0.260942
vn 0.000000 -1.000000 0.000000
vn 0.000000 -1.000000 0.000000
vn 0.000000 -1.000000 0.000000
vn 0.000000 -1.000000 0.000000
vn 0.000000 -1.000000 0.000000
vn 0.000000 -1.000000 0.000000
vn 0.969351 0.000132 0.245681
vn 0.969359 0.000132 0.245649
vn 0.939367 0.000177 0.342912
vn 0.939356 0.000177 0.342942
vn 0.343528 0.934869 0.089488
vn 0.625864 0.763363 0.159909
vn 0.604780 0.765022 0.221321
vn 0.331271 0.935474 0.123078
vn 0.000000 1.000000 0.000000
vn 0.000000 1.000000 0.000000
vn -0.894283 0.000784 -0.447500
vn -0.894337 0.000784 -0.447393
vn 0.314833 0.936255 0.155907
vn 0.000000 1.000000 -0.000000
vn 0.576211 0.767154 0.281878
vn 0.898222 0.000210 0.439543
vn 0.898208 0.000210 0.439570
vn 0.000000 -1.000000 0.000000
vn 0.000000 -1.000000 0.000000
vn 0.000000 -1.000000 0.000000
vn -0.347453 0.000210 -0.937697
vn -0.347438 0.000210 -0.937703
vn -0.442893 0.000213 -0.896574
vn -0.442912 0.000213 -0.896565
vn 0.000000 -1.000000 0.000000
vn 0.000000 -1.000000 0.000000
vn 0.000000 -1.000000 0.000000
vn 0.000000 -1.000000 0.000000
vn 0.000000 -1.000000 0.000000
vn 0.000000 -1.000000 0.000000
vn 0.443631 0.000257 0.896210
vn 0.443639 0.000257 0.896206
vn 0.349914 0.000234 0.936782
vn 0.349909 0.000234 0.936784
vn 0.152664 0.938907 0.308459
vn 0.279274 0.777030 0.564119
vn 0.219434 0.776473 0.590710
vn 0.120555 0.938434 0.323742
vn 0.000000 1.000000 0.000000
vn 0.000000 1.000000 0.000000
vn -0.252188 0.000194 -0.967678
vn -0.252177 0.000194 -0.967681
vn 0.088932 0.937737 0.335769
vn 0.000000 1.000000 0.000000
vn 0.160953 0.775199 0.610869
vn 0.256991 0.000206 0.966414
vn 0.256987 0.000206 0.966415
vn 0.000000 -1.000000 0.000000
vn 0.000000 -1.000000 0.000000
vn 0.000000 -1.000000 0.000000
vn -0.161578 0.000171 -0.986860
vn -0.161586 0.000171 -0.986859
vn 0.000000 1.000000 0.000000
vn 0.057845 0.937095 0.344248
vn 0.104132 0.773795 0.624818
vn 0.166271 0.000166 0.986080
vn 0.166272 0.000166 0.986080
vn 0.000000 -1.000000 0.000000
vn 0.000000 -1.000000 0.000000
vn 0.000000 -1.000000 0.000000
vn -0.536808 0.000077 -0.843705
vn -0.536830 0.000077 -0.843690
vn 0.000000 1.000000 0.000000
vn 0.184624 0.938897 0.290492
vn 0.338432 0.776594 0.531381
vn 0.536146 0.000273 0.844125
vn 0.536156 0.000273 0.844119
vn 0.000000 -1.000000 0.000000
vn 0.000000 -1.000000 0.000000
vn 0.000000 -1.000000 0.000000
vn -0.842769 0.000659 -0.538276
vn -0.842686 0.000659 -0.538405
vn 0.000000 1.000000 0.000000
vn 0.294524 0.937080 0.187448
vn 0.540316 0.769490 0.340505
vn 0.845596 0.000234 0.533824
vn 0.845609 0.000234 0.533803
vn 0.000000 -1.000000 0.000000
vn 0.000000 -1.000000 0.000000
vn 0.000000 -1.000000 0.000000
vn -0.985769 0.000680 -0.168103
vn -0.985763 0.000680 -0.168140
vn 0.000000 1.000000 0.000000
vn 0.351525 0.934523 0.055661
vn 0.639594 0.762376 0.098506
vn 0.988822 0.000082 0.149102
vn 0.988827 0.000082 0.149069
vn 0.000000 -1.000000 0.000000
vn 0.000000 -1.000000 0.000000
vn 0.000000 -1.000000 0.000000
s 1
g Outside_Bend_LP
usemtl initialShadingGroup
f 1/15/1 2/18/2 5/17/3 4/16/4
f 2/18/2 3/13/5 6/14/6 5/17/3
s 2
f 4/4/7 5/3/8 102/138/9 97/132/10
f 5/3/8 6/6/11 101/137/12 102/138/9
s 3
f 98/134/13 99/135/14 2/2/15 1/20/16
f 99/135/14 100/136/17 3/5/18 2/2/15
s 4
f 3/5/19 100/136/20 101/137/21 6/6/22
s 5
f 97/132/23 98/133/24 1/1/25 4/4/26
s 6
f 7/21/27 8/22/28 78/110/29 73/104/30
f 8/22/28 9/25/31 77/109/32 78/110/29
s 7
f 13/27/33 14/28/34 17/29/35 16/30/36
f 14/28/34 15/31/37 18/32/38 17/29/35
s 8
f 74/106/39 75/107/40 11/35/41 10/36/42
f 75/107/40 76/108/43 12/38/44 11/35/41
s 9
f 12/38/45 76/108/46 77/109/47 9/25/48
s 10
f 73/104/49 74/105/50 10/40/51 7/21/52
s 5
f 10/19/53 79/111/54 80/113/55 7/11/56
s 3
f 10/9/57 11/8/58 84/117/59 79/112/60
f 11/8/58 12/10/61 83/116/62 84/117/59
s 4
f 82/115/63 83/116/64 12/10/65 9/7/66
s 2
f 81/114/67 82/115/68 9/7/69 8/12/70
f 80/113/71 81/114/67 8/12/70 7/11/72
s 10
f 16/39/73 55/83/74 56/85/75 13/24/76
s 8
f 16/33/77 17/34/78 60/89/79 55/84/80
f 17/34/78 18/37/81 59/88/82 60/89/79
s 9
f 58/87/83 59/88/84 18/37/85 15/26/86
s 6
f 57/86/87 58/87/88 15/26/89 14/23/90
f 56/85/91 57/86/87 14/23/90 13/24/92
s 5
f 19/41/93 20/42/94 91/125/95 92/127/96
s 3
f 20/43/97 21/44/98 96/131/99 91/126/100
f 21/44/98 22/45/101 95/130/102 96/131/99
s 4
f 94/129/103 95/130/104 22/45/105 23/46/106
s 2
f 93/128/107 94/129/108 23/46/109 24/47/110
f 92/127/111 93/128/107 24/47/110 19/41/112
s 5
f 85/118/113 86/119/114 20/42/94 19/41/93
s 2
f 19/41/112 24/47/110 90/124/115 85/118/116
f 24/47/110 23/46/109 89/123/117 90/124/115
s 4
f 23/46/106 22/45/105 88/122/118 89/123/119
s 3
f 87/121/120 88/122/121 22/45/101 21/44/98
f 86/120/122 87/121/120 21/44/98 20/43/97
s 10
f 25/48/123 26/49/124 67/97/125 68/99/126
s 8
f 26/50/127 27/51/128 72/103/129 67/98/130
f 27/51/128 28/52/131 71/102/132 72/103/129
s 9
f 70/101/133 71/102/134 28/52/135 29/53/136
s 6
f 69/100/137 70/101/138 29/53/139 30/54/140
f 68/99/141 69/100/137 30/54/140 25/48/142
s 10
f 61/90/143 62/91/144 26/49/124 25/48/123
s 6
f 25/48/142 30/54/140 66/96/145 61/90/146
f 30/54/140 29/53/139 65/95/147 66/96/145
s 9
f 29/53/136 28/52/135 64/94/148 65/95/149
s 8
f 63/93/150 64/94/151 28/52/131 27/51/128
f 62/92/152 63/93/150 27/51/128 26/50/127
s 10
f 56/85/75 55/83/74 49/76/153 50/78/154
s 6
f 50/78/155 51/79/156 57/86/87 56/85/91
f 51/79/156 52/80/157 58/87/88 57/86/87
s 9
f 52/80/158 53/81/159 59/88/84 58/87/83
s 8
f 60/89/79 59/88/82 53/81/160 54/82/161
f 55/84/80 60/89/79 54/82/161 49/77/162
s 10
f 50/78/154 49/76/153 62/91/144 61/90/143
s 8
f 49/77/162 54/82/161 63/93/150 62/92/152
f 54/82/161 53/81/160 64/94/151 63/93/150
s 9
f 65/95/149 64/94/148 53/81/159 52/80/158
s 6
f 66/96/145 65/95/147 52/80/157 51/79/156
f 61/90/146 66/96/145 51/79/156 50/78/155
s 10
f 68/99/126 67/97/125 44/70/163 43/69/164
s 6
f 43/69/165 48/75/166 69/100/137 68/99/141
f 48/75/166 47/74/167 70/101/138 69/100/137
s 9
f 47/74/168 46/73/169 71/102/134 70/101/133
s 8
f 72/103/129 71/102/132 46/73/170 45/72/171
f 67/98/130 72/103/129 45/72/171 44/71/172
s 10
f 43/69/164 44/70/163 74/105/50 73/104/49
s 8
f 44/71/172 45/72/171 75/107/40 74/106/39
f 45/72/171 46/73/170 76/108/43 75/107/40
s 9
f 77/109/47 76/108/46 46/73/169 47/74/168
s 6
f 78/110/29 77/109/32 47/74/167 48/75/166
f 73/104/30 78/110/29 48/75/166 43/69/165
s 5
f 80/113/55 79/111/54 37/62/173 38/64/174
s 2
f 38/64/175 39/65/176 81/114/67 80/113/71
f 39/65/176 40/66/177 82/115/68 81/114/67
s 4
f 40/66/178 41/67/179 83/116/64 82/115/63
s 3
f 84/117/59 83/116/62 41/67/180 42/68/181
f 79/112/60 84/117/59 42/68/181 37/63/182
s 5
f 38/64/174 37/62/173 86/119/114 85/118/113
s 3
f 37/63/182 42/68/181 87/121/120 86/120/122
f 42/68/181 41/67/180 88/122/121 87/121/120
s 4
f 89/123/119 88/122/118 41/67/179 40/66/178
s 2
f 90/124/115 89/123/117 40/66/177 39/65/176
f 85/118/116 90/124/115 39/65/176 38/64/175
s 5
f 92/127/96 91/125/95 32/56/183 31/55/184
s 2
f 31/55/185 36/61/186 93/128/107 92/127/111
f 36/61/186 35/60/187 94/129/108 93/128/107
s 4
f 35/60/188 34/59/189 95/130/104 94/129/103
s 3
f 96/131/99 95/130/102 34/59/190 33/58/191
f 91/126/100 96/131/99 33/58/191 32/57/192
s 5
f 31/55/184 32/56/183 98/133/24 97/132/23
s 3
f 32/57/192 33/58/191 99/135/14 98/134/13
f 33/58/191 34/59/190 100/136/17 99/135/14
s 4
f 101/137/21 100/136/20 34/59/189 35/60/188
s 2
f 102/138/9 101/137/12 35/60/187 36/61/186
f 97/132/10 102/138/9 36/61/186 31/55/185
